<svg xmlns="http://www.w3.org/2000/svg" width="46" height="36" viewBox="0 0 46 36"><defs><clipPath id="1vnia"><path fill="#fff" d="M13.967 7.964v-5.67a2.3 2.3 0 0 1 2.3-2.3h13.408a2.3 2.3 0 0 1 2.3 2.3v5.67z"/></clipPath><clipPath id="1vnib"><path fill="#fff" d="M7 5.968h31.969a6 6 0 0 1 6 6V30a6 6 0 0 1-6 6H7a6 6 0 0 1-6-6V11.969a6 6 0 0 1 6-6z"/></clipPath><clipPath id="1vnic"><path fill="#fff" d="M22.031 20h1.938a1 1 0 0 1 1 1v5a1 1 0 0 1-1 1H22.03a1 1 0 0 1-1-1v-5a1 1 0 0 1 1-1z"/></clipPath><clipPath id="1vnid"><path fill="#fff" d="M44.397 16.914c0 3.995-9.643 7.168-21.347 7.168S.96 20.962.96 16.966"/></clipPath></defs><g><g><g><path fill="none" stroke="#00bcd4" stroke-miterlimit="50" stroke-width="4" d="M13.967 7.964v0-5.67a2.3 2.3 0 0 1 2.3-2.3h13.408a2.3 2.3 0 0 1 2.3 2.3v5.67z" clip-path="url(&quot;#1vnia&quot;)"/></g><g><path fill="none" stroke="#00bcd4" stroke-miterlimit="50" stroke-width="4" d="M7 5.968h31.969a6 6 0 0 1 6 6V30a6 6 0 0 1-6 6H7a6 6 0 0 1-6-6V11.969a6 6 0 0 1 6-6z" clip-path="url(&quot;#1vnib&quot;)"/></g><g><path fill="none" stroke="#00bcd4" stroke-miterlimit="50" stroke-width="4" d="M22.031 20h1.938a1 1 0 0 1 1 1v5a1 1 0 0 1-1 1H22.03a1 1 0 0 1-1-1v-5a1 1 0 0 1 1-1z" clip-path="url(&quot;#1vnic&quot;)"/></g><g><path fill="none" stroke="#00bcd4" stroke-miterlimit="50" stroke-width="4" d="M44.397 16.914c0 3.995-9.643 7.168-21.347 7.168S.96 20.962.96 16.966" clip-path="url(&quot;#1vnid&quot;)"/></g></g></g></svg>