<svg xmlns="http://www.w3.org/2000/svg" width="41" height="63" viewBox="0 0 41 63"><defs><clipPath id="zf41a"><path fill="#fff" d="M5.985 62.01H33.93"/></clipPath><clipPath id="zf41b"><path fill="#fff" d="M20.978 50.949v11.079"/></clipPath><clipPath id="zf41c"><path fill="#fff" d="M19.873 0h.254C26.684 0 32 5.316 32 11.873v17.254C32 35.684 26.684 41 20.127 41h-.254C13.316 41 8 35.684 8 29.127V11.873C8 5.316 13.316 0 19.873 0z"/></clipPath><clipPath id="zf41d"><path fill="#fff" d="M.978 31.073s.69 19.923 19.515 19.923c18.824 0 19.502-20.002 19.502-20.002"/></clipPath></defs><g><g><g><path fill="none" stroke="#8ac249" stroke-miterlimit="50" stroke-width="4" d="M5.985 62.01H33.93" clip-path="url(&quot;#zf41a&quot;)"/></g><g><path fill="none" stroke="#8ac249" stroke-miterlimit="50" stroke-width="4" d="M20.978 50.949v11.079" clip-path="url(&quot;#zf41b&quot;)"/></g><g><path fill="none" stroke="#8ac249" stroke-miterlimit="50" stroke-width="4" d="M19.873 0h.254C26.684 0 32 5.316 32 11.873v17.254C32 35.684 26.684 41 20.127 41h-.254C13.316 41 8 35.684 8 29.127V11.873C8 5.316 13.316 0 19.873 0z" clip-path="url(&quot;#zf41c&quot;)"/></g><g><path fill="none" stroke="#8ac249" stroke-miterlimit="50" stroke-width="4" d="M.978 31.073v0s.69 19.923 19.515 19.923c18.824 0 19.502-20.002 19.502-20.002v0" clip-path="url(&quot;#zf41d&quot;)"/></g></g></g></svg>