<svg xmlns="http://www.w3.org/2000/svg" width="48" height="48" viewBox="0 0 48 48"><g><g><g opacity=".1"><path fill="#fff" d="M24 0c13.255 0 24 10.745 24 24S37.255 48 24 48 0 37.255 0 24 10.745 0 24 0z"/></g><g><path fill="#fff" d="M31.955 17.617V30.54c0 1.006-.528 1.448-1.525 1.448H17.526c-.997 0-1.525-.6-1.525-1.604V17.555c0-1.005.59-1.542 1.588-1.542H30.4c.996 0 1.556.599 1.556 1.604zm-13.934 4.397l-.018 7.957L30 30.04l-.032-7.998-1.51-.006a4.556 4.556 0 0 1-4.482 5.39 4.557 4.557 0 0 1-4.478-5.406zm10.485-.029h-.056v.003l.056-.003zm1.165-2.992a.689.689 0 0 0-.687-.692h-.896a.689.689 0 0 0-.686.692v.871c.19.216.36.45.506.698a.683.683 0 0 0 .18.024h.896c.38 0 .687-.309.687-.69zm-7.677 4.04c0 1.106.895 2.003 1.998 2.003 1.104 0 2-.897 2-2.003a2.001 2.001 0 0 0-2-2.004 2.001 2.001 0 0 0-1.998 2.004z"/></g></g></g></svg>