<svg xmlns="http://www.w3.org/2000/svg" width="48" height="48" viewBox="0 0 48 48"><g><g><g opacity=".1"><path fill="#fff" d="M24 0c13.255 0 24 10.745 24 24S37.255 48 24 48 0 37.255 0 24 10.745 0 24 0z"/></g><g><path fill="#fff" d="M27.4 28.485c-1.005.368-2.205.576-2.355.469-.064-.047-.081-.087-.09-.119-.01-.048.038-.807.038-2.05l-.017-3.828h2.966v-2.954h-2.93l-.052-4.007-3.123 1.92-.167 2.087h-1.683l-.027 2.92h2.047v4.246c0 1.133.036 1.874.105 2.252.09.577.264 1.05.515 1.406.261.37.288.67.816.892.504.211 1.199.318 1.818.318.97 0 1.854-.722 2.63-1.054l.112-.14-.028-2.891z"/></g></g></g></svg>