<svg xmlns="http://www.w3.org/2000/svg" width="48" height="48" viewBox="0 0 48 48"><g><g><g opacity=".1"><path fill="#fff" d="M24 0c13.255 0 24 10.745 24 24S37.255 48 24 48 0 37.255 0 24 10.745 0 24 0z"/></g><g><path fill="#fff" d="M32.998 18.654a6.9 6.9 0 0 1-2.003.556 3.537 3.537 0 0 0 1.533-1.955 6.936 6.936 0 0 1-2.214.858 3.464 3.464 0 0 0-2.547-1.117c-1.925 0-3.487 1.583-3.487 3.534 0 .277.03.547.09.806-2.899-.147-5.469-1.555-7.189-3.692-.3.52-.472 1.128-.472 1.776 0 1.226.616 2.307 1.552 2.942a3.438 3.438 0 0 1-1.58-.443v.045c0 1.712 1.202 3.14 2.798 3.465a3.451 3.451 0 0 1-1.576.06c.444 1.404 1.732 2.426 3.258 2.455a6.941 6.941 0 0 1-4.331 1.512c-.282 0-.832.14-.832-.05a9.773 9.773 0 0 0 5.346 1.588c6.415 0 9.923-5.384 9.923-10.054 0-.153-.003-.305-.01-.457a7.142 7.142 0 0 0 1.74-1.829z"/></g></g></g></svg>